# xmcd
#
# Track frame offsets:
#	183
#	14958
#	29933
#	42495
#	55520
#	69945
#	83895
#	98683
#	112370
#	127170
#	139333
#	150658
#	171858
#	184545
#
# Disc length: 2687 seconds
#
# Revision: 1
# Processed by: cddbd v1.5.2PL0 Copyright (c) Steve Scherf et al.
# Submitted via: audiograbber 1.83.01
#
DISCID=cd0a7d0e
DTITLE=aa.vv. - 040 - Venezia canta
DYEAR=1994
DGENRE=Oldies
TTITLE0=P. Principe - Carnevale di Venezia
TTITLE1=C. Boni - G. Latilla - Dove ti va Nineta
TTITLE2=F. Cigliano - Good bye Venezia
TTITLE3=I gondolieri - El gondolier
TTITLE4=I gondolieri - Do cuori 'na gondola
TTITLE5=I gondolieri - 'na gondola 'na casada
TTITLE6=I gondolieri - Sotto el ponte dell'abazia
TTITLE7=I gondolieri - Souvenir di Venezia
TTITLE8=I gondolieri - Ogni onda porta un raggio
TTITLE9=I gondolieri - Una gondola rossa e blu
TTITLE10=I gondolieri - Addio Venezia
TTITLE11=Calicanto - Cavarte dal fredo
TTITLE12=C. Boni - G. Latilla - Marieta monta in gondola
TTITLE13=T. Reno - Te vojo ben
EXTD=
EXTT0=
EXTT1=
EXTT2=
EXTT3=
EXTT4=
EXTT5=
EXTT6=
EXTT7=
EXTT8=
EXTT9=
EXTT10=
EXTT11=
EXTT12=
EXTT13=
PLAYORDER=
